<mxfile host="app.diagrams.net" agent="Mozilla/5.0 (Windows NT 10.0; Win64; x64) AppleWebKit/537.36 (KHTML, like Gecko) Chrome/132.0.0.0 Safari/537.36" version="26.0.11">
  <diagram name="Page-1" id="2ca16b54-16f6-2749-3443-fa8db7711227">
    <mxGraphModel dx="1687" dy="918" grid="1" gridSize="10" guides="1" tooltips="1" connect="1" arrows="1" fold="1" page="1" pageScale="1" pageWidth="1100" pageHeight="850" background="none" math="0" shadow="0">
      <root>
        <mxCell id="0" />
        <mxCell id="1" parent="0" />
        <mxCell id="wadp7KTghlVlg7lMaca4-18" value="发布脚本" style="edgeStyle=none;curved=1;rounded=0;html=1;exitX=0.5;exitY=1;exitDx=0;exitDy=0;entryX=1;entryY=0;entryDx=0;entryDy=0;" edge="1" parent="1" target="wadp7KTghlVlg7lMaca4-14">
          <mxGeometry relative="1" as="geometry">
            <mxPoint x="420" y="240" as="sourcePoint" />
            <Array as="points">
              <mxPoint x="500" y="440" />
            </Array>
          </mxGeometry>
        </mxCell>
        <mxCell id="wadp7KTghlVlg7lMaca4-181" value="" style="rounded=1;whiteSpace=wrap;html=1;fillColor=#F5F5F5;strokeColor=#000000;" vertex="1" parent="1">
          <mxGeometry x="50" y="60" width="240" height="410" as="geometry" />
        </mxCell>
        <mxCell id="wadp7KTghlVlg7lMaca4-182" value="平台错误码文案" style="rounded=1;whiteSpace=wrap;html=1;fillColor=#FFFFFF;strokeColor=#000000;" vertex="1" parent="1">
          <mxGeometry x="70" y="180" width="200" height="50" as="geometry" />
        </mxCell>
        <mxCell id="wadp7KTghlVlg7lMaca4-183" value="第三方平台错误码文案" style="rounded=1;whiteSpace=wrap;html=1;fillColor=#FFFFFF;strokeColor=#000000;" vertex="1" parent="1">
          <mxGeometry x="70" y="250" width="200" height="50" as="geometry" />
        </mxCell>
        <mxCell id="wadp7KTghlVlg7lMaca4-184" value="业务文案" style="rounded=1;whiteSpace=wrap;html=1;fillColor=#FFFFFF;strokeColor=#000000;" vertex="1" parent="1">
          <mxGeometry x="70" y="320" width="200" height="50" as="geometry" />
        </mxCell>
        <mxCell id="wadp7KTghlVlg7lMaca4-185" value="公共文案" style="rounded=1;whiteSpace=wrap;html=1;fillColor=#FFFFFF;strokeColor=#000000;" vertex="1" parent="1">
          <mxGeometry x="70" y="390" width="200" height="50" as="geometry" />
        </mxCell>
        <mxCell id="wadp7KTghlVlg7lMaca4-186" value="" style="rounded=1;whiteSpace=wrap;html=1;fillColor=#F5F5F5;strokeColor=#000000;" vertex="1" parent="1">
          <mxGeometry x="390" y="60" width="240" height="410" as="geometry" />
        </mxCell>
        <mxCell id="wadp7KTghlVlg7lMaca4-187" value="检测脚本" style="rounded=1;whiteSpace=wrap;html=1;fillColor=#FFFFFF;strokeColor=#000000;" vertex="1" parent="1">
          <mxGeometry x="410" y="250" width="200" height="50" as="geometry" />
        </mxCell>
        <mxCell id="wadp7KTghlVlg7lMaca4-188" value="生成脚本" style="rounded=1;whiteSpace=wrap;html=1;fillColor=#FFFFFF;strokeColor=#000000;" vertex="1" parent="1">
          <mxGeometry x="410" y="180" width="200" height="50" as="geometry" />
        </mxCell>
        <mxCell id="wadp7KTghlVlg7lMaca4-189" value="替换脚本" style="rounded=1;whiteSpace=wrap;html=1;fillColor=#FFFFFF;strokeColor=#000000;" vertex="1" parent="1">
          <mxGeometry x="410" y="320" width="200" height="50" as="geometry" />
        </mxCell>
        <mxCell id="wadp7KTghlVlg7lMaca4-190" value="发布脚本" style="rounded=1;whiteSpace=wrap;html=1;fillColor=#FFFFFF;strokeColor=#000000;" vertex="1" parent="1">
          <mxGeometry x="410" y="390" width="200" height="50" as="geometry" />
        </mxCell>
        <mxCell id="wadp7KTghlVlg7lMaca4-191" value="消费终端" style="rounded=1;whiteSpace=wrap;html=1;fillColor=#F5F5F5;strokeColor=#000000;" vertex="1" parent="1">
          <mxGeometry x="720" y="60" width="240" height="410" as="geometry" />
        </mxCell>
        <mxCell id="wadp7KTghlVlg7lMaca4-192" value="本地开发（local）和项目发布（bamboo）" style="rounded=1;whiteSpace=wrap;html=1;fillColor=#FFFFFF;strokeColor=#000000;" vertex="1" parent="1">
          <mxGeometry x="740" y="180" width="200" height="50" as="geometry" />
        </mxCell>
        <mxCell id="wadp7KTghlVlg7lMaca4-193" value="代码开发结束（bamboo）" style="rounded=1;whiteSpace=wrap;html=1;fillColor=#FFFFFF;strokeColor=#000000;" vertex="1" parent="1">
          <mxGeometry x="740" y="250" width="200" height="50" as="geometry" />
        </mxCell>
        <mxCell id="wadp7KTghlVlg7lMaca4-194" value="代码发布前（https://api-checker.open-api.dev.tableau-shanghai-test.com）" style="rounded=1;whiteSpace=wrap;html=1;fillColor=#FFFFFF;strokeColor=#000000;" vertex="1" parent="1">
          <mxGeometry x="740" y="320" width="200" height="50" as="geometry" />
        </mxCell>
        <mxCell id="wadp7KTghlVlg7lMaca4-195" value="替换文案后" style="rounded=1;whiteSpace=wrap;html=1;fillColor=#FFFFFF;strokeColor=#000000;" vertex="1" parent="1">
          <mxGeometry x="740" y="390" width="200" height="50" as="geometry" />
        </mxCell>
        <mxCell id="wadp7KTghlVlg7lMaca4-196" value="quip数据层" style="text;html=1;align=center;verticalAlign=middle;whiteSpace=wrap;rounded=0;" vertex="1" parent="1">
          <mxGeometry x="125" y="120" width="90" height="30" as="geometry" />
        </mxCell>
        <mxCell id="wadp7KTghlVlg7lMaca4-197" value="translator cli" style="text;html=1;align=center;verticalAlign=middle;whiteSpace=wrap;rounded=0;" vertex="1" parent="1">
          <mxGeometry x="480" y="120" width="70" height="30" as="geometry" />
        </mxCell>
        <mxCell id="wadp7KTghlVlg7lMaca4-198" value="消费终端" style="text;html=1;align=center;verticalAlign=middle;whiteSpace=wrap;rounded=0;" vertex="1" parent="1">
          <mxGeometry x="810" y="120" width="60" height="30" as="geometry" />
        </mxCell>
        <mxCell id="wadp7KTghlVlg7lMaca4-199" value="" style="endArrow=classic;html=1;rounded=0;exitX=1;exitY=0.5;exitDx=0;exitDy=0;entryX=0;entryY=0.5;entryDx=0;entryDy=0;" edge="1" parent="1" source="wadp7KTghlVlg7lMaca4-188" target="wadp7KTghlVlg7lMaca4-192">
          <mxGeometry width="50" height="50" relative="1" as="geometry">
            <mxPoint x="610" y="206" as="sourcePoint" />
            <mxPoint x="660" y="140" as="targetPoint" />
          </mxGeometry>
        </mxCell>
        <mxCell id="wadp7KTghlVlg7lMaca4-200" value="" style="endArrow=classic;html=1;rounded=0;exitX=1;exitY=0.5;exitDx=0;exitDy=0;entryX=0;entryY=0.5;entryDx=0;entryDy=0;" edge="1" parent="1" source="wadp7KTghlVlg7lMaca4-187" target="wadp7KTghlVlg7lMaca4-193">
          <mxGeometry width="50" height="50" relative="1" as="geometry">
            <mxPoint x="480" y="190" as="sourcePoint" />
            <mxPoint x="650" y="300" as="targetPoint" />
          </mxGeometry>
        </mxCell>
        <mxCell id="wadp7KTghlVlg7lMaca4-201" value="" style="endArrow=classic;html=1;rounded=0;exitX=1;exitY=0.5;exitDx=0;exitDy=0;entryX=0;entryY=0.5;entryDx=0;entryDy=0;" edge="1" parent="1" source="wadp7KTghlVlg7lMaca4-189" target="wadp7KTghlVlg7lMaca4-194">
          <mxGeometry width="50" height="50" relative="1" as="geometry">
            <mxPoint x="480" y="70" as="sourcePoint" />
            <mxPoint x="670" y="340" as="targetPoint" />
          </mxGeometry>
        </mxCell>
        <mxCell id="wadp7KTghlVlg7lMaca4-202" value="" style="endArrow=classic;html=1;rounded=0;exitX=1;exitY=0.5;exitDx=0;exitDy=0;entryX=0;entryY=0.5;entryDx=0;entryDy=0;" edge="1" parent="1" source="wadp7KTghlVlg7lMaca4-190" target="wadp7KTghlVlg7lMaca4-195">
          <mxGeometry width="50" height="50" relative="1" as="geometry">
            <mxPoint x="480" y="310" as="sourcePoint" />
            <mxPoint x="650" y="400" as="targetPoint" />
          </mxGeometry>
        </mxCell>
        <mxCell id="wadp7KTghlVlg7lMaca4-203" style="edgeStyle=orthogonalEdgeStyle;rounded=0;orthogonalLoop=1;jettySize=auto;html=1;exitX=1;exitY=0.5;exitDx=0;exitDy=0;" edge="1" parent="1" source="wadp7KTghlVlg7lMaca4-181">
          <mxGeometry relative="1" as="geometry">
            <mxPoint x="390" y="265" as="targetPoint" />
          </mxGeometry>
        </mxCell>
        <mxCell id="wadp7KTghlVlg7lMaca4-204" value="提供数据" style="edgeLabel;html=1;align=center;verticalAlign=middle;resizable=0;points=[];" vertex="1" connectable="0" parent="wadp7KTghlVlg7lMaca4-203">
          <mxGeometry x="0.1867" relative="1" as="geometry">
            <mxPoint x="-1" as="offset" />
          </mxGeometry>
        </mxCell>
        <mxCell id="wadp7KTghlVlg7lMaca4-205" value="" style="endArrow=classic;html=1;rounded=0;entryX=1;entryY=0.61;entryDx=0;entryDy=0;entryPerimeter=0;" edge="1" parent="1" target="wadp7KTghlVlg7lMaca4-181">
          <mxGeometry width="50" height="50" relative="1" as="geometry">
            <mxPoint x="390" y="310" as="sourcePoint" />
            <mxPoint x="530" y="260" as="targetPoint" />
          </mxGeometry>
        </mxCell>
        <mxCell id="wadp7KTghlVlg7lMaca4-206" value="修改数据" style="edgeLabel;html=1;align=center;verticalAlign=middle;resizable=0;points=[];" vertex="1" connectable="0" parent="wadp7KTghlVlg7lMaca4-205">
          <mxGeometry x="-0.1071" relative="1" as="geometry">
            <mxPoint as="offset" />
          </mxGeometry>
        </mxCell>
      </root>
    </mxGraphModel>
  </diagram>
</mxfile>
